<svg width="351" height="72" viewBox="0 0 351 72" fill="none" xmlns="http://www.w3.org/2000/svg">
<path d="M1 17.8C1 11.9195 1 8.97917 2.14443 6.7331C3.1511 4.7574 4.7574 3.1511 6.7331 2.14443C8.97917 1 11.9194 1 17.8 1H54.2C60.0805 1 63.0208 1 65.2669 2.14443C67.2426 3.1511 68.8489 4.7574 69.8556 6.7331C71 8.97917 71 11.9194 71 17.8V54.2C71 60.0805 71 63.0208 69.8556 65.2669C68.8489 67.2426 67.2426 68.8489 65.2669 69.8556C63.0208 71 60.0806 71 54.2 71H17.8C11.9195 71 8.97917 71 6.7331 69.8556C4.7574 68.8489 3.1511 67.2426 2.14443 65.2669C1 63.0208 1 60.0806 1 54.2V17.8Z" stroke="white"/>
<path d="M26.9452 39.6294C28.1989 40.1914 29.3067 41.0478 30.1798 42.1298C31.0528 43.2118 31.6666 44.4892 31.972 45.8594C33.0169 50.5216 31.6857 53.5131 28.7169 54.4616C25.7481 55.4101 22.1587 52.2375 21.2318 49.0423C20.305 45.8471 20.4571 42.3062 22.507 40.3722C24.1926 38.7818 26.5108 39.4648 26.5789 39.4978C26.6469 39.5307 26.8291 39.5698 26.9452 39.6294ZM23.3799 40.1788C22.6432 40.5553 20.9636 43.1621 22.7793 48.2851C24.595 53.4082 27.2535 53.4534 28.1323 53.2107C29.0112 52.9679 30.4645 51.5853 29.908 47.2585C29.3515 42.9316 27.0473 40.8495 27.0473 40.8495C25.8022 39.5718 24.3027 39.7035 23.566 40.08L23.3799 40.1788Z" fill="white"/>
<path d="M22.0727 11.5C22.0727 11.5 22.0466 18.7916 28.6629 22.7625C35.2791 26.7334 35.2531 27.9946 35.6194 28.7517C35.6194 28.7517 36.6003 29.4883 36.3761 26.9C36.1519 24.3117 35.6494 23.5608 35.227 23.2254C35.227 23.2254 37.5993 24.752 37.5372 26.9288C37.4752 29.1056 37.1749 30.3071 36.1359 31.6075C36.1359 31.6075 35.4793 34.3644 34.2201 35.4611C34.3217 34.9259 34.3938 34.3853 34.4363 33.8418C34.4243 33.4921 34.2141 33.2884 33.9478 33.5085C33.6816 33.7287 30.3845 35.0393 28.2325 33.92C28.1685 33.8029 28.1326 33.6719 28.1278 33.5377C28.1229 33.4036 28.1492 33.2701 28.2044 33.1485C28.4046 32.7226 29.1533 30.9429 29.7619 30.7804C30.3705 30.6178 32.2202 30.8318 32.6286 30.8174C33.037 30.803 33.8497 30.6343 32.8628 29.6879C31.8759 28.7414 31.0271 27.8588 29.2194 26.8733C27.4117 25.8877 25.4338 23.8529 24.573 22.6226C23.7122 21.3922 21.3099 17.2053 22.0727 11.5Z" fill="white"/>
<path d="M33.8797 17.5798C34.2581 17.5798 35.4993 17.9398 35.3071 19.5076C35.1389 20.8696 34.3782 21.0383 33.7896 21.0342C33.103 21.0342 32.2662 20.3882 32.2942 19.1949C32.3223 18.0015 33.4513 17.6436 33.4513 17.6436C33.5895 17.597 33.7344 17.5754 33.8797 17.5798Z" fill="white"/>
<path d="M36.7084 22.6102L38.344 24.5833C38.344 24.5833 43.675 18.8574 43.1145 14.6006C43.1145 14.6006 39.2308 20.7729 36.7084 22.6246V22.6102Z" fill="white"/>
<path d="M28.0022 35.4755C28.0022 35.4755 30.3404 36.0227 31.4274 35.8437C31.4274 35.8437 34.7766 39.4957 36.314 41.1396C36.9118 41.8009 37.345 42.6009 37.5768 43.4714C37.8086 44.342 37.8321 45.2573 37.6453 46.1392C37.2309 48.0485 36.4862 50.2541 35.3131 51.8322C35.3131 51.8322 35.7655 49.0814 35.7255 47.8901C35.6855 46.6988 35.6975 45.0858 34.2721 43.3143C32.8468 41.5429 28.7669 37.9032 28.0022 35.4755Z" fill="white"/>
<path d="M40.3278 36.7881C40.3278 36.7881 44.1134 37.7736 44.5999 39.9998C45.0863 42.226 41.4909 42.9173 40.7342 42.7342C39.9775 42.551 40.3018 42.047 40.7102 42.0326C41.1186 42.0182 43.1745 42.2239 43.1365 41.1026C43.0984 39.9813 42.2677 39.6624 41.6451 39.4052C41.0225 39.148 38.8765 38.2407 38.4421 37.5535C38.0077 36.8663 39.0106 36.2017 40.3258 36.7861L40.3278 36.7881Z" fill="white"/>
<path d="M38.4861 49.0567C38.5443 48.068 38.818 47.1054 39.2869 46.24C41.3448 42.4358 45.8931 42.9481 48.6737 46.2791C51.4543 49.6101 52.0349 55.55 50.4273 58.1774C48.8198 60.8047 44.9862 61.8931 41.1866 57.6898C39.0807 55.3566 38.3099 51.6388 38.4861 49.0567ZM42.9783 57.126C45.767 59.9283 48.0911 59.2287 48.7498 56.4141C49.4084 53.5995 48.4215 51.1203 48.0191 49.9579C47.6167 48.7954 44.5158 42.7239 40.9424 44.771C38.4661 46.1907 39.7653 53.8979 42.9783 57.126Z" fill="white"/>
<path d="M92 58.0287V13.25H109.581C112.927 13.25 115.822 13.8511 118.266 15.0532C120.71 16.2352 122.594 17.9282 123.916 20.1321C125.258 22.3159 125.93 24.9005 125.93 27.8857C125.93 30.891 125.258 33.4956 123.916 35.6995C122.574 37.8833 120.66 39.5763 118.176 40.7784C115.712 41.9605 112.807 42.5515 109.461 42.5515H101.076V58.0287H92ZM101.076 34.9181H109.01C111.474 34.9181 113.428 34.287 114.87 33.0248C116.313 31.7625 117.034 30.0495 117.034 27.8857C117.034 25.742 116.313 24.049 114.87 22.8068C113.428 21.5446 111.474 20.9135 109.01 20.9135H101.076V34.9181Z" fill="white"/>
<path d="M140.55 58.6899C137.785 58.6899 135.37 57.9987 133.307 56.6162C131.263 55.2338 129.67 53.3004 128.528 50.8161C127.386 48.3317 126.815 45.4366 126.815 42.1308C126.815 38.8851 127.396 36.02 128.558 33.5357C129.72 31.0513 131.323 29.1179 133.367 27.7355C135.41 26.333 137.785 25.6318 140.489 25.6318C142.553 25.6318 144.396 26.0525 146.019 26.894C147.642 27.7154 148.944 28.9576 149.926 30.6205H150.046V26.2929H158.551V58.0287H150.046V53.2804H149.956C149.034 55.0635 147.752 56.4159 146.109 57.3375C144.486 58.2391 142.633 58.6899 140.55 58.6899ZM142.803 51.5674C145.067 51.5674 146.891 50.7159 148.273 49.0129C149.656 47.2899 150.347 44.9958 150.347 42.1308C150.347 39.2657 149.656 36.9817 148.273 35.2787C146.891 33.5557 145.067 32.6942 142.803 32.6942C140.62 32.6942 138.877 33.5156 137.574 35.1585C136.272 36.8014 135.621 39.1255 135.621 42.1308C135.621 45.1361 136.272 47.4602 137.574 49.103C138.877 50.7459 140.62 51.5674 142.803 51.5674Z" fill="white"/>
<path d="M178.701 58.75C175.535 58.75 172.76 58.0588 170.376 56.6764C167.992 55.2739 166.129 53.3305 164.786 50.8461C163.464 48.3417 162.803 45.4566 162.803 42.1909C162.803 38.9051 163.464 36.02 164.786 33.5357C166.129 31.0313 167.992 29.0778 170.376 27.6754C172.76 26.2729 175.535 25.5717 178.701 25.5717C181.466 25.5717 183.93 26.1026 186.094 27.1645C188.258 28.2263 189.991 29.7089 191.293 31.6123C192.615 33.4956 193.367 35.6594 193.547 38.1037H185.102C184.862 36.4808 184.2 35.1685 183.119 34.1668C182.037 33.145 180.604 32.6341 178.821 32.6341C176.557 32.6341 174.784 33.4956 173.502 35.2186C172.239 36.9417 171.608 39.2657 171.608 42.1909C171.608 45.096 172.239 47.4101 173.502 49.1331C174.784 50.8361 176.557 51.6876 178.821 51.6876C180.624 51.6876 182.037 51.1867 183.058 50.1849C184.1 49.1832 184.771 47.8408 185.072 46.1579H193.547C193.407 48.5821 192.685 50.7459 191.383 52.6493C190.101 54.5326 188.368 56.0252 186.184 57.1271C184 58.209 181.506 58.75 178.701 58.75Z" fill="white"/>
<path d="M212.104 58.75C208.898 58.75 206.113 58.0388 203.749 56.6162C201.385 55.1937 199.542 53.2403 198.219 50.7559C196.917 48.2515 196.266 45.3965 196.266 42.1909C196.266 38.9652 196.927 36.1002 198.249 33.5958C199.592 31.0914 201.425 29.1279 203.749 27.7054C206.093 26.2829 208.778 25.5717 211.803 25.5717C214.909 25.5717 217.623 26.2729 219.947 27.6754C222.292 29.0578 224.115 30.9912 225.417 33.4756C226.719 35.9399 227.37 38.7849 227.37 42.0106V44.3547H204.771C204.851 46.7188 205.552 48.6222 206.874 50.0647C208.197 51.4872 210.03 52.1985 212.374 52.1985C214.117 52.1985 215.57 51.8278 216.732 51.0865C217.894 50.3252 218.675 49.3234 219.076 48.0812H227.07C226.669 50.1849 225.768 52.0382 224.365 53.641C222.983 55.2438 221.23 56.496 219.106 57.3976C217.002 58.2992 214.668 58.75 212.104 58.75ZM204.831 38.7649H219.166C218.926 36.7413 218.174 35.1485 216.912 33.9865C215.65 32.8244 214.007 32.2434 211.983 32.2434C209.98 32.2434 208.347 32.8244 207.085 33.9865C205.823 35.1485 205.071 36.7413 204.831 38.7649Z" fill="white"/>
<path d="M253.456 58.75C249.73 58.75 246.484 58.0688 243.719 56.7064C240.974 55.324 238.841 53.4106 237.318 50.9663C235.815 48.522 235.064 45.687 235.064 42.4614V13.25H243.96V41.71C243.96 44.3547 244.821 46.5385 246.544 48.2616C248.287 49.9846 250.591 50.8461 253.456 50.8461C256.341 50.8461 258.645 49.9946 260.369 48.2916C262.092 46.5686 262.953 44.3747 262.953 41.71V13.25H271.849V42.4614C271.849 45.667 271.087 48.502 269.565 50.9663C268.062 53.4106 265.928 55.324 263.163 56.7064C260.399 58.0688 257.163 58.75 253.456 58.75Z" fill="white"/>
<path d="M287.881 13.25V58.0287H278.805V13.25H287.881Z" fill="white"/>
</svg>
