<svg width="227" height="70" viewBox="0 0 227 70" fill="none" xmlns="http://www.w3.org/2000/svg">
<g clip-path="url(#clip0_7_27)">
<path d="M0 16.8C0 10.9195 0 7.97917 1.14443 5.7331C2.1511 3.7574 3.7574 2.1511 5.7331 1.14443C7.97917 0 10.9194 0 16.8 0H53.2C59.0805 0 62.0208 0 64.2669 1.14443C66.2426 2.1511 67.8489 3.7574 68.8556 5.7331C70 7.97917 70 10.9194 70 16.8V53.2C70 59.0805 70 62.0208 68.8556 64.2669C67.8489 66.2426 66.2426 67.8489 64.2669 68.8556C62.0208 70 59.0806 70 53.2 70H16.8C10.9195 70 7.97917 70 5.7331 68.8556C3.7574 67.8489 2.1511 66.2426 1.14443 64.2669C0 62.0208 0 59.0806 0 53.2V16.8Z" fill="url(#paint0_linear_7_27)"/>
<path d="M25.9452 38.6294C27.1989 39.1914 28.3067 40.0478 29.1798 41.1298C30.0528 42.2118 30.6666 43.4892 30.972 44.8594C32.0169 49.5216 30.6857 52.5131 27.7169 53.4616C24.7481 54.4101 21.1587 51.2375 20.2318 48.0423C19.305 44.8471 19.4571 41.3062 21.507 39.3722C23.1926 37.7818 25.5108 38.4648 25.5789 38.4978C25.6469 38.5307 25.8291 38.5698 25.9452 38.6294ZM22.3799 39.1788C21.6432 39.5553 19.9636 42.1621 21.7793 47.2851C23.595 52.4082 26.2535 52.4534 27.1323 52.2107C28.0112 51.9679 29.4645 50.5853 28.908 46.2585C28.3515 41.9316 26.0473 39.8495 26.0473 39.8495C24.8022 38.5718 23.3027 38.7035 22.566 39.08L22.3799 39.1788Z" fill="white"/>
<path d="M21.0727 10.5C21.0727 10.5 21.0466 17.7916 27.6629 21.7625C34.2791 25.7334 34.2531 26.9946 34.6194 27.7517C34.6194 27.7517 35.6003 28.4883 35.3761 25.9C35.1519 23.3117 34.6494 22.5608 34.227 22.2254C34.227 22.2254 36.5993 23.752 36.5372 25.9288C36.4752 28.1056 36.1749 29.3071 35.1359 30.6075C35.1359 30.6075 34.4793 33.3644 33.2201 34.4611C33.3217 33.9259 33.3938 33.3853 33.4363 32.8418C33.4243 32.4921 33.2141 32.2884 32.9478 32.5085C32.6816 32.7287 29.3845 34.0393 27.2325 32.92C27.1685 32.8029 27.1326 32.6719 27.1278 32.5377C27.1229 32.4036 27.1492 32.2701 27.2044 32.1485C27.4046 31.7226 28.1533 29.9429 28.7619 29.7804C29.3705 29.6178 31.2202 29.8318 31.6286 29.8174C32.037 29.803 32.8497 29.6343 31.8628 28.6879C30.8759 27.7414 30.0271 26.8588 28.2194 25.8733C26.4117 24.8877 24.4338 22.8529 23.573 21.6226C22.7122 20.3922 20.3099 16.2053 21.0727 10.5Z" fill="white"/>
<path d="M32.8797 16.5798C33.2581 16.5798 34.4993 16.9398 34.3071 18.5076C34.1389 19.8696 33.3782 20.0383 32.7896 20.0342C32.103 20.0342 31.2662 19.3882 31.2942 18.1949C31.3223 17.0015 32.4513 16.6436 32.4513 16.6436C32.5895 16.597 32.7344 16.5754 32.8797 16.5798Z" fill="white"/>
<path d="M35.7084 21.6102L37.344 23.5833C37.344 23.5833 42.675 17.8574 42.1145 13.6006C42.1145 13.6006 38.2308 19.7729 35.7084 21.6246V21.6102Z" fill="white"/>
<path d="M27.0022 34.4755C27.0022 34.4755 29.3404 35.0227 30.4274 34.8437C30.4274 34.8437 33.7766 38.4957 35.314 40.1396C35.9118 40.8009 36.345 41.6009 36.5768 42.4714C36.8086 43.342 36.8321 44.2573 36.6453 45.1392C36.2309 47.0485 35.4862 49.2541 34.3131 50.8322C34.3131 50.8322 34.7655 48.0814 34.7255 46.8901C34.6855 45.6988 34.6975 44.0858 33.2721 42.3143C31.8468 40.5429 27.7669 36.9032 27.0022 34.4755Z" fill="white"/>
<path d="M39.3278 35.7881C39.3278 35.7881 43.1134 36.7736 43.5999 38.9998C44.0863 41.226 40.4909 41.9173 39.7342 41.7342C38.9775 41.551 39.3018 41.047 39.7102 41.0326C40.1186 41.0182 42.1745 41.2239 42.1365 40.1026C42.0984 38.9813 41.2677 38.6624 40.6451 38.4052C40.0225 38.148 37.8765 37.2407 37.4421 36.5535C37.0077 35.8663 38.0106 35.2017 39.3258 35.7861L39.3278 35.7881Z" fill="white"/>
<path d="M37.4861 48.0567C37.5443 47.068 37.818 46.1054 38.2869 45.24C40.3448 41.4358 44.8931 41.9481 47.6737 45.2791C50.4543 48.6101 51.0349 54.55 49.4273 57.1774C47.8198 59.8047 43.9862 60.8931 40.1866 56.6898C38.0807 54.3566 37.3099 50.6388 37.4861 48.0567ZM41.9783 56.126C44.767 58.9283 47.0911 58.2287 47.7498 55.4141C48.4084 52.5995 47.4215 50.1203 47.0191 48.9579C46.6167 47.7954 43.5158 41.7239 39.9424 43.771C37.4661 45.1907 38.7653 52.8979 41.9783 56.126Z" fill="white"/>
<path d="M91 57.0287V12.25H108.581C111.927 12.25 114.822 12.8511 117.266 14.0532C119.71 15.2352 121.594 16.9282 122.916 19.1321C124.258 21.3159 124.93 23.9005 124.93 26.8857C124.93 29.891 124.258 32.4956 122.916 34.6995C121.574 36.8833 119.66 38.5763 117.176 39.7784C114.712 40.9605 111.807 41.5515 108.461 41.5515H100.076V57.0287H91ZM100.076 33.9181H108.01C110.474 33.9181 112.428 33.287 113.87 32.0248C115.313 30.7625 116.034 29.0495 116.034 26.8857C116.034 24.742 115.313 23.049 113.87 21.8068C112.428 20.5446 110.474 19.9135 108.01 19.9135H100.076V33.9181Z" fill="black"/>
<path d="M139.55 57.6899C136.785 57.6899 134.37 56.9987 132.307 55.6162C130.263 54.2338 128.67 52.3004 127.528 49.8161C126.386 47.3317 125.815 44.4366 125.815 41.1308C125.815 37.8851 126.396 35.02 127.558 32.5357C128.72 30.0513 130.323 28.1179 132.367 26.7355C134.41 25.333 136.785 24.6318 139.489 24.6318C141.553 24.6318 143.396 25.0525 145.019 25.894C146.642 26.7154 147.944 27.9576 148.926 29.6205H149.046V25.2929H157.551V57.0287H149.046V52.2804H148.956C148.034 54.0635 146.752 55.4159 145.109 56.3375C143.486 57.2391 141.633 57.6899 139.55 57.6899ZM141.803 50.5674C144.067 50.5674 145.891 49.7159 147.273 48.0129C148.656 46.2899 149.347 43.9958 149.347 41.1308C149.347 38.2657 148.656 35.9817 147.273 34.2787C145.891 32.5557 144.067 31.6942 141.803 31.6942C139.62 31.6942 137.877 32.5156 136.574 34.1585C135.272 35.8014 134.621 38.1255 134.621 41.1308C134.621 44.1361 135.272 46.4602 136.574 48.103C137.877 49.7459 139.62 50.5674 141.803 50.5674Z" fill="black"/>
<path d="M177.701 57.75C174.535 57.75 171.76 57.0588 169.376 55.6764C166.992 54.2739 165.129 52.3305 163.786 49.8461C162.464 47.3417 161.803 44.4566 161.803 41.1909C161.803 37.9051 162.464 35.02 163.786 32.5357C165.129 30.0313 166.992 28.0778 169.376 26.6754C171.76 25.2729 174.535 24.5717 177.701 24.5717C180.466 24.5717 182.93 25.1026 185.094 26.1645C187.258 27.2263 188.991 28.7089 190.293 30.6123C191.615 32.4956 192.367 34.6594 192.547 37.1037H184.102C183.862 35.4808 183.2 34.1685 182.119 33.1668C181.037 32.145 179.604 31.6341 177.821 31.6341C175.557 31.6341 173.784 32.4956 172.502 34.2186C171.239 35.9417 170.608 38.2657 170.608 41.1909C170.608 44.096 171.239 46.4101 172.502 48.1331C173.784 49.8361 175.557 50.6876 177.821 50.6876C179.624 50.6876 181.037 50.1867 182.058 49.1849C183.1 48.1832 183.771 46.8408 184.072 45.1579H192.547C192.407 47.5821 191.685 49.7459 190.383 51.6493C189.101 53.5326 187.368 55.0252 185.184 56.1271C183 57.209 180.506 57.75 177.701 57.75Z" fill="black"/>
<path d="M211.104 57.75C207.898 57.75 205.113 57.0388 202.749 55.6162C200.385 54.1937 198.542 52.2403 197.219 49.7559C195.917 47.2515 195.266 44.3965 195.266 41.1909C195.266 37.9652 195.927 35.1002 197.249 32.5958C198.592 30.0914 200.425 28.1279 202.749 26.7054C205.093 25.2829 207.778 24.5717 210.803 24.5717C213.909 24.5717 216.623 25.2729 218.947 26.6754C221.292 28.0578 223.115 29.9912 224.417 32.4756C225.719 34.9399 226.37 37.7849 226.37 41.0106V43.3547H203.771C203.851 45.7188 204.552 47.6222 205.874 49.0647C207.197 50.4872 209.03 51.1985 211.374 51.1985C213.117 51.1985 214.57 50.8278 215.732 50.0865C216.894 49.3252 217.675 48.3234 218.076 47.0812H226.07C225.669 49.1849 224.768 51.0382 223.365 52.641C221.983 54.2438 220.23 55.496 218.106 56.3976C216.002 57.2992 213.668 57.75 211.104 57.75ZM203.831 37.7649H218.166C217.926 35.7413 217.174 34.1485 215.912 32.9865C214.65 31.8244 213.007 31.2434 210.983 31.2434C208.98 31.2434 207.347 31.8244 206.085 32.9865C204.823 34.1485 204.071 35.7413 203.831 37.7649Z" fill="black"/>
</g>
<defs>
<linearGradient id="paint0_linear_7_27" x1="70" y1="0" x2="0" y2="70" gradientUnits="userSpaceOnUse">
<stop stop-color="#0575E6"/>
<stop offset="1" stop-color="#021B79"/>
</linearGradient>
<clipPath id="clip0_7_27">
<rect width="226.37" height="70" fill="white"/>
</clipPath>
</defs>
</svg>
